<svg xmlns="http://www.w3.org/2000/svg" xmlns:xlink="http://www.w3.org/1999/xlink" width="944" zoomAndPan="magnify" viewBox="0 0 708.75 283.499996" height="377" preserveAspectRatio="xMidYMid meet" version="1.0"><defs><g/></defs><g fill="#ec9006" fill-opacity="1"><g transform="translate(58.245819, 168.940802)"><g><path d="M 6.109375 -58.71875 C 6.109375 -61.5625 6.523438 -63.691406 7.359375 -65.109375 C 8.203125 -66.535156 9.460938 -67.488281 11.140625 -67.96875 C 12.816406 -68.457031 14.953125 -68.703125 17.546875 -68.703125 C 19.410156 -68.703125 20.828125 -68.054688 21.796875 -66.765625 C 22.765625 -65.472656 23.347656 -63.988281 23.546875 -62.3125 C 23.867188 -59.34375 24.175781 -56.382812 24.46875 -53.4375 C 24.757812 -50.5 25.066406 -47.546875 25.390625 -44.578125 L 26.359375 -36.34375 C 26.421875 -36.144531 26.484375 -35.5625 26.546875 -34.59375 C 26.617188 -33.625 26.765625 -32.671875 26.984375 -31.734375 C 27.210938 -30.796875 27.488281 -30.328125 27.8125 -30.328125 C 28.257812 -30.328125 28.660156 -30.941406 29.015625 -32.171875 C 29.378906 -33.398438 29.6875 -34.867188 29.9375 -36.578125 C 30.195312 -38.296875 30.40625 -39.878906 30.5625 -41.328125 C 30.726562 -42.785156 30.84375 -43.738281 30.90625 -44.1875 C 31.101562 -45.9375 31.265625 -47.890625 31.390625 -50.046875 C 31.523438 -52.210938 31.769531 -54.410156 32.125 -56.640625 C 32.476562 -58.867188 33.023438 -60.953125 33.765625 -62.890625 C 34.515625 -64.828125 35.566406 -66.410156 36.921875 -67.640625 C 38.148438 -68.734375 39.664062 -69.3125 41.46875 -69.375 C 43.28125 -69.445312 44.929688 -69.484375 46.421875 -69.484375 C 49.585938 -69.484375 52.023438 -68.660156 53.734375 -67.015625 C 55.441406 -65.367188 56.664062 -63.25 57.40625 -60.65625 C 58.15625 -58.070312 58.660156 -55.40625 58.921875 -52.65625 C 59.179688 -49.914062 59.40625 -47.414062 59.59375 -45.15625 C 59.726562 -43.539062 59.875 -41.910156 60.03125 -40.265625 C 60.195312 -38.617188 60.375 -36.957031 60.5625 -35.28125 C 60.625 -35.019531 60.703125 -34.5 60.796875 -33.71875 C 60.898438 -32.945312 61.046875 -32.203125 61.234375 -31.484375 C 61.429688 -30.773438 61.660156 -30.421875 61.921875 -30.421875 C 62.441406 -30.421875 62.8125 -30.757812 63.03125 -31.4375 C 63.257812 -32.125 63.40625 -32.660156 63.46875 -33.046875 C 63.789062 -34.210938 64.082031 -36.019531 64.34375 -38.46875 C 64.601562 -40.925781 64.84375 -43.65625 65.0625 -46.65625 C 65.289062 -49.664062 65.550781 -52.625 65.84375 -55.53125 C 66.132812 -58.4375 66.472656 -60.9375 66.859375 -63.03125 C 67.253906 -65.132812 67.707031 -66.445312 68.21875 -66.96875 C 68.925781 -67.675781 69.679688 -68.125 70.484375 -68.3125 C 71.296875 -68.507812 72.15625 -68.609375 73.0625 -68.609375 C 75.96875 -68.609375 78.210938 -68.300781 79.796875 -67.6875 C 81.378906 -67.070312 82.460938 -65.972656 83.046875 -64.390625 C 83.628906 -62.804688 83.921875 -60.5625 83.921875 -57.65625 C 83.921875 -55.78125 83.742188 -53.273438 83.390625 -50.140625 C 83.035156 -47.015625 82.515625 -43.5625 81.828125 -39.78125 C 81.148438 -36 80.34375 -32.171875 79.40625 -28.296875 C 78.476562 -24.421875 77.414062 -20.738281 76.21875 -17.25 C 75.019531 -13.757812 73.722656 -10.722656 72.328125 -8.140625 C 70.941406 -5.554688 69.476562 -3.75 67.9375 -2.71875 C 66.570312 -1.8125 64.804688 -1.34375 62.640625 -1.3125 C 60.484375 -1.28125 58.628906 -1.265625 57.078125 -1.265625 C 56.109375 -1.265625 55.171875 -1.519531 54.265625 -2.03125 C 53.171875 -2.613281 52.25 -3.828125 51.5 -5.671875 C 50.757812 -7.515625 50.160156 -9.597656 49.703125 -11.921875 C 49.253906 -14.242188 48.914062 -16.46875 48.6875 -18.59375 C 48.46875 -20.726562 48.289062 -22.378906 48.15625 -23.546875 C 48.09375 -24.578125 47.992188 -25.59375 47.859375 -26.59375 C 47.734375 -27.601562 47.640625 -28.625 47.578125 -29.65625 C 47.578125 -30.238281 47.492188 -31.191406 47.328125 -32.515625 C 47.171875 -33.835938 46.960938 -35.222656 46.703125 -36.671875 C 46.453125 -38.128906 46.164062 -39.375 45.84375 -40.40625 C 45.519531 -41.4375 45.160156 -41.953125 44.765625 -41.953125 C 44.640625 -41.953125 44.546875 -41.890625 44.484375 -41.765625 C 44.421875 -41.640625 44.351562 -41.507812 44.28125 -41.375 C 43.832031 -40.21875 43.507812 -38.6875 43.3125 -36.78125 C 43.125 -34.875 42.929688 -33.273438 42.734375 -31.984375 C 42.609375 -31.015625 42.492188 -30.0625 42.390625 -29.125 C 42.296875 -28.1875 42.1875 -27.234375 42.0625 -26.265625 C 41.988281 -25.234375 41.867188 -23.796875 41.703125 -21.953125 C 41.546875 -20.109375 41.335938 -18.132812 41.078125 -16.03125 C 40.828125 -13.9375 40.457031 -11.90625 39.96875 -9.9375 C 39.488281 -7.96875 38.859375 -6.269531 38.078125 -4.84375 C 37.304688 -3.425781 36.335938 -2.519531 35.171875 -2.125 C 34.140625 -1.738281 33.085938 -1.515625 32.015625 -1.453125 C 30.953125 -1.390625 29.875 -1.359375 28.78125 -1.359375 C 27.550781 -1.359375 26.304688 -1.46875 25.046875 -1.6875 C 23.785156 -1.914062 22.609375 -2.351562 21.515625 -3 C 20.484375 -3.707031 19.59375 -4.5625 18.84375 -5.5625 C 18.101562 -6.570312 17.472656 -7.59375 16.953125 -8.625 C 15.859375 -10.945312 14.773438 -13.738281 13.703125 -17 C 12.640625 -20.269531 11.640625 -23.773438 10.703125 -27.515625 C 9.765625 -31.265625 8.957031 -35.046875 8.28125 -38.859375 C 7.601562 -42.671875 7.070312 -46.285156 6.6875 -49.703125 C 6.300781 -53.128906 6.109375 -56.132812 6.109375 -58.71875 Z M 6.109375 -58.71875 "/></g></g></g><g fill="#ec9006" fill-opacity="1"><g transform="translate(142.167127, 168.940802)"><g><path d="M 29.65625 -45.734375 L 29.65625 -28.875 C 29.65625 -27.644531 29.617188 -25.960938 29.546875 -23.828125 C 29.484375 -21.703125 29.367188 -19.457031 29.203125 -17.09375 C 29.046875 -14.738281 28.820312 -12.546875 28.53125 -10.515625 C 28.25 -8.484375 27.847656 -6.945312 27.328125 -5.90625 C 26.554688 -4.289062 25.488281 -3.09375 24.125 -2.3125 C 22.769531 -1.539062 21.222656 -1.15625 19.484375 -1.15625 C 18.316406 -1.15625 17.132812 -1.21875 15.9375 -1.34375 C 14.738281 -1.476562 13.625 -1.835938 12.59375 -2.421875 C 11.6875 -2.941406 10.941406 -4.023438 10.359375 -5.671875 C 9.785156 -7.316406 9.320312 -9.253906 8.96875 -11.484375 C 8.613281 -13.710938 8.351562 -15.988281 8.1875 -18.3125 C 8.03125 -20.632812 7.929688 -22.765625 7.890625 -24.703125 C 7.859375 -26.648438 7.84375 -28.140625 7.84375 -29.171875 C 7.84375 -31.234375 7.8125 -33.296875 7.75 -35.359375 C 7.6875 -37.429688 7.65625 -39.503906 7.65625 -41.578125 C 7.65625 -42.671875 7.671875 -44.203125 7.703125 -46.171875 C 7.734375 -48.140625 7.84375 -50.269531 8.03125 -52.5625 C 8.226562 -54.863281 8.519531 -57.09375 8.90625 -59.25 C 9.300781 -61.414062 9.851562 -63.320312 10.5625 -64.96875 C 11.269531 -66.625 12.140625 -67.738281 13.171875 -68.3125 C 13.953125 -68.769531 14.757812 -69.078125 15.59375 -69.234375 C 16.4375 -69.398438 17.3125 -69.484375 18.21875 -69.484375 C 19.507812 -69.484375 20.65625 -69.445312 21.65625 -69.375 C 22.65625 -69.3125 23.707031 -68.925781 24.8125 -68.21875 C 25.90625 -67.570312 26.773438 -66.28125 27.421875 -64.34375 C 28.066406 -62.40625 28.550781 -60.222656 28.875 -57.796875 C 29.195312 -55.378906 29.40625 -53.054688 29.5 -50.828125 C 29.601562 -48.597656 29.65625 -46.898438 29.65625 -45.734375 Z M 29.65625 -45.734375 "/></g></g></g><g fill="#ec9006" fill-opacity="1"><g transform="translate(173.758574, 168.940802)"><g><path d="M 30.53125 -70.359375 C 35.5 -70.359375 40.144531 -69.5 44.46875 -67.78125 C 48.800781 -66.070312 52.582031 -63.648438 55.8125 -60.515625 C 59.039062 -57.378906 61.5625 -53.679688 63.375 -49.421875 C 65.1875 -45.160156 66.09375 -40.507812 66.09375 -35.46875 C 66.09375 -30.5625 65.171875 -25.972656 63.328125 -21.703125 C 61.484375 -17.441406 58.929688 -13.695312 55.671875 -10.46875 C 52.410156 -7.238281 48.628906 -4.734375 44.328125 -2.953125 C 40.035156 -1.179688 35.4375 -0.296875 30.53125 -0.296875 C 28.007812 -0.296875 25.296875 -0.375 22.390625 -0.53125 C 19.484375 -0.695312 16.832031 -1.195312 14.4375 -2.03125 C 12.625 -2.675781 11.1875 -4.046875 10.125 -6.140625 C 9.0625 -8.242188 8.253906 -10.734375 7.703125 -13.609375 C 7.148438 -16.484375 6.789062 -19.457031 6.625 -22.53125 C 6.46875 -25.601562 6.390625 -28.460938 6.390625 -31.109375 C 6.390625 -33.753906 6.390625 -35.851562 6.390625 -37.40625 C 6.390625 -38.757812 6.40625 -40.566406 6.4375 -42.828125 C 6.476562 -45.085938 6.59375 -47.507812 6.78125 -50.09375 C 6.976562 -52.6875 7.316406 -55.207031 7.796875 -57.65625 C 8.285156 -60.113281 8.945312 -62.28125 9.78125 -64.15625 C 10.625 -66.03125 11.691406 -67.351562 12.984375 -68.125 C 13.828125 -68.644531 15.003906 -69.046875 16.515625 -69.328125 C 18.035156 -69.617188 19.679688 -69.828125 21.453125 -69.953125 C 23.234375 -70.085938 24.945312 -70.1875 26.59375 -70.25 C 28.25 -70.320312 29.5625 -70.359375 30.53125 -70.359375 Z M 47.1875 -36.921875 C 47.1875 -42.796875 45.828125 -47.410156 43.109375 -50.765625 C 40.398438 -54.128906 35.976562 -55.8125 29.84375 -55.8125 C 28.75 -55.8125 27.957031 -55.519531 27.46875 -54.9375 C 26.988281 -54.363281 26.585938 -53.59375 26.265625 -52.625 C 26.003906 -51.78125 25.875 -50.84375 25.875 -49.8125 C 25.875 -46.84375 25.820312 -43.835938 25.71875 -40.796875 C 25.625 -37.765625 25.578125 -34.726562 25.578125 -31.6875 C 25.578125 -31.039062 25.59375 -29.8125 25.625 -28 C 25.664062 -26.195312 25.765625 -24.273438 25.921875 -22.234375 C 26.085938 -20.203125 26.410156 -18.457031 26.890625 -17 C 27.378906 -15.550781 28.109375 -14.828125 29.078125 -14.828125 C 33.984375 -14.828125 37.742188 -15.765625 40.359375 -17.640625 C 42.972656 -19.515625 44.765625 -22.113281 45.734375 -25.4375 C 46.703125 -28.757812 47.1875 -32.585938 47.1875 -36.921875 Z M 47.1875 -36.921875 "/></g></g></g><g fill="#ec9006" fill-opacity="1"><g transform="translate(235.875773, 168.940802)"><g><path d="M 26.359375 -21.421875 C 26.359375 -17.992188 28.132812 -16.28125 31.6875 -16.28125 C 34.332031 -16.28125 37.007812 -16.328125 39.71875 -16.421875 C 42.4375 -16.523438 45.125 -16.578125 47.78125 -16.578125 C 50.164062 -16.578125 51.679688 -16.15625 52.328125 -15.3125 C 52.972656 -14.46875 53.296875 -12.914062 53.296875 -10.65625 C 53.296875 -8.65625 52.796875 -7.023438 51.796875 -5.765625 C 50.796875 -4.503906 49.519531 -3.550781 47.96875 -2.90625 C 46.414062 -2.257812 44.734375 -1.804688 42.921875 -1.546875 C 41.117188 -1.285156 39.441406 -1.15625 37.890625 -1.15625 C 34.460938 -1.15625 30.859375 -1.171875 27.078125 -1.203125 C 23.304688 -1.242188 19.804688 -1.910156 16.578125 -3.203125 C 13.015625 -4.679688 10.585938 -6.8125 9.296875 -9.59375 C 8.003906 -12.375 7.234375 -15.570312 6.984375 -19.1875 C 6.847656 -21.570312 6.75 -23.941406 6.6875 -26.296875 C 6.625 -28.660156 6.59375 -31.039062 6.59375 -33.4375 C 6.59375 -35.375 6.578125 -37.296875 6.546875 -39.203125 C 6.515625 -41.109375 6.5 -43.03125 6.5 -44.96875 C 6.5 -51.101562 7.175781 -55.847656 8.53125 -59.203125 C 9.882812 -62.566406 11.898438 -64.972656 14.578125 -66.421875 C 17.265625 -67.878906 20.59375 -68.769531 24.5625 -69.09375 C 28.539062 -69.414062 33.144531 -69.578125 38.375 -69.578125 C 40.570312 -69.578125 42.863281 -69.285156 45.25 -68.703125 C 47.644531 -68.117188 49.617188 -66.988281 51.171875 -65.3125 C 52.066406 -64.34375 52.660156 -63.195312 52.953125 -61.875 C 53.242188 -60.550781 53.390625 -59.242188 53.390625 -57.953125 C 53.390625 -56.597656 52.820312 -55.628906 51.6875 -55.046875 C 50.5625 -54.460938 49.269531 -54.117188 47.8125 -54.015625 C 46.363281 -53.921875 45.15625 -53.875 44.1875 -53.875 C 42.570312 -53.875 40.972656 -53.953125 39.390625 -54.109375 C 37.804688 -54.273438 36.207031 -54.359375 34.59375 -54.359375 C 32.78125 -54.359375 31.257812 -54.273438 30.03125 -54.109375 C 28.8125 -53.953125 27.910156 -53.4375 27.328125 -52.5625 C 26.742188 -51.695312 26.453125 -50.164062 26.453125 -47.96875 C 26.453125 -46.414062 26.984375 -45.285156 28.046875 -44.578125 C 29.117188 -43.867188 30.378906 -43.414062 31.828125 -43.21875 C 33.285156 -43.019531 34.597656 -42.921875 35.765625 -42.921875 C 37.242188 -42.921875 38.707031 -42.96875 40.15625 -43.0625 C 41.613281 -43.164062 43.054688 -43.21875 44.484375 -43.21875 C 45.710938 -43.21875 46.972656 -43.070312 48.265625 -42.78125 C 49.554688 -42.488281 50.585938 -41.828125 51.359375 -40.796875 C 51.878906 -40.148438 52.171875 -39.242188 52.234375 -38.078125 C 52.296875 -36.921875 52.328125 -35.953125 52.328125 -35.171875 C 52.328125 -34.523438 52.257812 -33.847656 52.125 -33.140625 C 52 -32.429688 51.773438 -31.816406 51.453125 -31.296875 C 51.003906 -30.648438 50.148438 -30.164062 48.890625 -29.84375 C 47.628906 -29.519531 46.207031 -29.3125 44.625 -29.21875 C 43.039062 -29.125 41.535156 -29.09375 40.109375 -29.125 C 38.691406 -29.15625 37.597656 -29.171875 36.828125 -29.171875 C 36.046875 -29.171875 35.054688 -29.171875 33.859375 -29.171875 C 32.671875 -29.171875 31.523438 -29.085938 30.421875 -28.921875 C 29.328125 -28.765625 28.457031 -28.425781 27.8125 -27.90625 C 27.488281 -27.644531 27.242188 -27.304688 27.078125 -26.890625 C 26.921875 -26.472656 26.78125 -26.035156 26.65625 -25.578125 C 26.519531 -24.929688 26.4375 -24.253906 26.40625 -23.546875 C 26.375 -22.835938 26.359375 -22.128906 26.359375 -21.421875 Z M 26.359375 -21.421875 "/></g></g></g><g fill="#ec9006" fill-opacity="1"><g transform="translate(289.755864, 168.940802)"><g><path d="M 25.96875 -9.6875 C 25.96875 -8.207031 25.867188 -6.851562 25.671875 -5.625 C 25.484375 -4.394531 24.984375 -3.421875 24.171875 -2.703125 C 23.367188 -1.992188 22.0625 -1.640625 20.25 -1.640625 C 19.019531 -1.640625 17.757812 -1.703125 16.46875 -1.828125 C 15.175781 -1.960938 13.953125 -2.257812 12.796875 -2.71875 C 11.429688 -3.289062 10.328125 -4.628906 9.484375 -6.734375 C 8.648438 -8.835938 8.023438 -11.359375 7.609375 -14.296875 C 7.191406 -17.234375 6.898438 -20.234375 6.734375 -23.296875 C 6.578125 -26.367188 6.5 -29.179688 6.5 -31.734375 C 6.5 -34.285156 6.5 -36.207031 6.5 -37.5 C 6.5 -40.863281 6.59375 -44.222656 6.78125 -47.578125 C 6.976562 -50.941406 7.332031 -54.269531 7.84375 -57.5625 C 8.101562 -58.914062 8.523438 -60.5625 9.109375 -62.5 C 9.691406 -64.4375 10.5 -65.859375 11.53125 -66.765625 C 12.625 -67.671875 14.15625 -68.378906 16.125 -68.890625 C 18.101562 -69.410156 20.238281 -69.785156 22.53125 -70.015625 C 24.820312 -70.242188 27.03125 -70.390625 29.15625 -70.453125 C 31.289062 -70.515625 33.070312 -70.546875 34.5 -70.546875 C 37.789062 -70.546875 41.035156 -70.0625 44.234375 -69.09375 C 47.429688 -68.125 50.351562 -66.6875 53 -64.78125 C 55.65625 -62.875 57.773438 -60.53125 59.359375 -57.75 C 60.941406 -54.976562 61.734375 -51.78125 61.734375 -48.15625 C 61.734375 -46.9375 61.601562 -45.710938 61.34375 -44.484375 C 61.082031 -43.253906 60.597656 -42.085938 59.890625 -40.984375 C 58.859375 -39.304688 57.644531 -37.773438 56.25 -36.390625 C 54.863281 -35.003906 53.332031 -33.757812 51.65625 -32.65625 C 51.457031 -32.59375 51.097656 -32.363281 50.578125 -31.96875 C 50.066406 -31.582031 49.8125 -31.265625 49.8125 -31.015625 C 49.8125 -30.816406 50.035156 -30.441406 50.484375 -29.890625 C 50.941406 -29.347656 51.441406 -28.816406 51.984375 -28.296875 C 52.535156 -27.773438 52.910156 -27.421875 53.109375 -27.234375 C 53.816406 -26.453125 54.601562 -25.09375 55.46875 -23.15625 C 56.34375 -21.21875 57.179688 -19.085938 57.984375 -16.765625 C 58.796875 -14.441406 59.460938 -12.242188 59.984375 -10.171875 C 60.503906 -8.109375 60.765625 -6.523438 60.765625 -5.421875 C 60.765625 -4.585938 60.242188 -3.910156 59.203125 -3.390625 C 58.171875 -2.867188 56.925781 -2.476562 55.46875 -2.21875 C 54.019531 -1.96875 52.617188 -1.789062 51.265625 -1.6875 C 49.910156 -1.59375 48.941406 -1.546875 48.359375 -1.546875 C 46.285156 -1.546875 44.695312 -2.109375 43.59375 -3.234375 C 42.5 -4.367188 41.675781 -5.820312 41.125 -7.59375 C 40.582031 -9.375 40.082031 -11.28125 39.625 -13.3125 C 39.175781 -15.351562 38.5625 -17.257812 37.78125 -19.03125 C 37.007812 -20.8125 35.878906 -22.265625 34.390625 -23.390625 C 32.910156 -24.523438 30.816406 -25.09375 28.109375 -25.09375 C 27.328125 -25.09375 26.757812 -24.523438 26.40625 -23.390625 C 26.050781 -22.265625 25.84375 -21.039062 25.78125 -19.71875 C 25.71875 -18.394531 25.6875 -17.441406 25.6875 -16.859375 C 25.6875 -15.703125 25.734375 -14.523438 25.828125 -13.328125 C 25.921875 -12.128906 25.96875 -10.914062 25.96875 -9.6875 Z M 25.78125 -51.546875 L 25.78125 -43.21875 C 25.78125 -42.3125 25.90625 -41.304688 26.15625 -40.203125 C 26.414062 -39.109375 27.160156 -38.5625 28.390625 -38.5625 C 30.785156 -38.5625 33.015625 -38.753906 35.078125 -39.140625 C 37.148438 -39.535156 38.847656 -40.394531 40.171875 -41.71875 C 41.492188 -43.039062 42.15625 -45.15625 42.15625 -48.0625 C 42.15625 -49.8125 41.671875 -51.296875 40.703125 -52.515625 C 39.734375 -53.742188 38.488281 -54.695312 36.96875 -55.375 C 35.445312 -56.0625 33.910156 -56.40625 32.359375 -56.40625 L 29.5625 -56.40625 C 28.070312 -56.40625 27.066406 -55.921875 26.546875 -54.953125 C 26.035156 -53.984375 25.78125 -52.847656 25.78125 -51.546875 Z M 25.78125 -51.546875 "/></g></g></g><g fill="#ec9006" fill-opacity="1"><g transform="translate(350.419446, 168.940802)"><g><path d="M 39.34375 -15.125 C 41.726562 -15.125 44.066406 -15.492188 46.359375 -16.234375 C 48.660156 -16.972656 51.003906 -17.34375 53.390625 -17.34375 C 54.492188 -17.34375 55.351562 -17.148438 55.96875 -16.765625 C 56.582031 -16.378906 56.890625 -15.570312 56.890625 -14.34375 C 56.890625 -13.5 56.835938 -12.414062 56.734375 -11.09375 C 56.640625 -9.769531 56.445312 -8.492188 56.15625 -7.265625 C 55.863281 -6.035156 55.394531 -5.097656 54.75 -4.453125 C 53.976562 -3.679688 52.75 -3.019531 51.0625 -2.46875 C 49.382812 -1.914062 47.5625 -1.476562 45.59375 -1.15625 C 43.625 -0.832031 41.71875 -0.609375 39.875 -0.484375 C 38.03125 -0.359375 36.5625 -0.296875 35.46875 -0.296875 C 30.488281 -0.296875 25.960938 -1.195312 21.890625 -3 C 17.828125 -4.8125 14.304688 -7.332031 11.328125 -10.5625 C 8.359375 -13.789062 6.082031 -17.519531 4.5 -21.75 C 2.914062 -25.988281 2.125 -30.53125 2.125 -35.375 C 2.125 -40.019531 2.898438 -44.441406 4.453125 -48.640625 C 6.003906 -52.847656 8.21875 -56.582031 11.09375 -59.84375 C 13.96875 -63.101562 17.390625 -65.671875 21.359375 -67.546875 C 25.335938 -69.421875 29.75 -70.359375 34.59375 -70.359375 C 35.4375 -70.359375 36.257812 -70.359375 37.0625 -70.359375 C 37.875 -70.359375 38.695312 -70.320312 39.53125 -70.25 C 40.757812 -70.1875 42.359375 -69.992188 44.328125 -69.671875 C 46.304688 -69.347656 48.210938 -68.878906 50.046875 -68.265625 C 51.890625 -67.648438 53.203125 -66.894531 53.984375 -66 C 55.078125 -64.832031 55.6875 -63.226562 55.8125 -61.1875 C 55.945312 -59.15625 56.015625 -57.398438 56.015625 -55.921875 C 56.015625 -55.078125 55.882812 -54.394531 55.625 -53.875 C 55.363281 -53.363281 54.75 -53.109375 53.78125 -53.109375 C 51.195312 -53.109375 48.660156 -53.476562 46.171875 -54.21875 C 43.679688 -54.957031 41.113281 -55.328125 38.46875 -55.328125 C 34.789062 -55.328125 31.769531 -54.390625 29.40625 -52.515625 C 27.050781 -50.648438 25.289062 -48.242188 24.125 -45.296875 C 22.96875 -42.359375 22.390625 -39.210938 22.390625 -35.859375 C 22.390625 -32.367188 22.984375 -29.039062 24.171875 -25.875 C 25.367188 -22.707031 27.210938 -20.125 29.703125 -18.125 C 32.191406 -16.125 35.40625 -15.125 39.34375 -15.125 Z M 39.34375 -15.125 "/></g></g></g><g fill="#ec9006" fill-opacity="1"><g transform="translate(408.175818, 168.940802)"><g><path d="M 16.671875 -1.84375 C 14.597656 -1.84375 12.738281 -1.921875 11.09375 -2.078125 C 9.445312 -2.242188 8.140625 -2.84375 7.171875 -3.875 C 6.203125 -4.90625 5.71875 -6.710938 5.71875 -9.296875 C 5.71875 -10.910156 6.070312 -13.332031 6.78125 -16.5625 C 7.488281 -19.800781 8.457031 -23.484375 9.6875 -27.609375 C 10.914062 -31.742188 12.304688 -36.007812 13.859375 -40.40625 C 15.410156 -44.800781 16.992188 -48.9375 18.609375 -52.8125 C 20.222656 -56.6875 21.804688 -59.992188 23.359375 -62.734375 C 24.910156 -65.484375 26.296875 -67.28125 27.515625 -68.125 C 28.617188 -68.894531 29.703125 -69.34375 30.765625 -69.46875 C 31.828125 -69.601562 33.007812 -69.671875 34.3125 -69.671875 C 36.375 -69.671875 38.066406 -69.460938 39.390625 -69.046875 C 40.710938 -68.628906 42.050781 -67.578125 43.40625 -65.890625 C 44.382812 -64.671875 45.550781 -62.65625 46.90625 -59.84375 C 48.257812 -57.03125 49.660156 -53.71875 51.109375 -49.90625 C 52.566406 -46.09375 54.003906 -42.117188 55.421875 -37.984375 C 56.847656 -33.847656 58.125 -29.828125 59.25 -25.921875 C 60.382812 -22.015625 61.289062 -18.523438 61.96875 -15.453125 C 62.644531 -12.390625 62.984375 -10.050781 62.984375 -8.4375 C 62.984375 -6.75 62.546875 -5.453125 61.671875 -4.546875 C 60.804688 -3.648438 59.675781 -3.003906 58.28125 -2.609375 C 56.894531 -2.222656 55.457031 -1.984375 53.96875 -1.890625 C 52.488281 -1.796875 51.164062 -1.75 50 -1.75 C 48.0625 -1.75 46.753906 -2.050781 46.078125 -2.65625 C 45.398438 -3.269531 45.007812 -4.046875 44.90625 -4.984375 C 44.8125 -5.921875 44.75 -6.9375 44.71875 -8.03125 C 44.6875 -9.132812 44.378906 -10.15625 43.796875 -11.09375 C 43.210938 -12.03125 42.097656 -12.804688 40.453125 -13.421875 C 38.804688 -14.035156 36.304688 -14.34375 32.953125 -14.34375 C 30.171875 -14.34375 28.148438 -14.035156 26.890625 -13.421875 C 25.628906 -12.804688 24.785156 -12.03125 24.359375 -11.09375 C 23.941406 -10.15625 23.71875 -9.15625 23.6875 -8.09375 C 23.65625 -7.03125 23.523438 -6.03125 23.296875 -5.09375 C 23.078125 -4.15625 22.484375 -3.378906 21.515625 -2.765625 C 20.546875 -2.148438 18.929688 -1.84375 16.671875 -1.84375 Z M 33.53125 -28.296875 L 35.5625 -28.296875 C 36.53125 -28.296875 37.335938 -28.566406 37.984375 -29.109375 C 38.628906 -29.660156 38.953125 -30.457031 38.953125 -31.5 C 38.953125 -31.945312 38.851562 -32.800781 38.65625 -34.0625 C 38.46875 -35.320312 38.210938 -36.742188 37.890625 -38.328125 C 37.566406 -39.910156 37.210938 -41.457031 36.828125 -42.96875 C 36.441406 -44.488281 36.003906 -45.75 35.515625 -46.75 C 35.035156 -47.757812 34.566406 -48.265625 34.109375 -48.265625 C 33.722656 -48.265625 33.300781 -47.757812 32.84375 -46.75 C 32.394531 -45.75 31.957031 -44.488281 31.53125 -42.96875 C 31.113281 -41.457031 30.726562 -39.894531 30.375 -38.28125 C 30.019531 -36.664062 29.742188 -35.226562 29.546875 -33.96875 C 29.359375 -32.707031 29.265625 -31.847656 29.265625 -31.390625 C 29.265625 -30.097656 29.695312 -29.257812 30.5625 -28.875 C 31.4375 -28.488281 32.425781 -28.296875 33.53125 -28.296875 Z M 33.53125 -28.296875 "/></g></g></g><g fill="#ec9006" fill-opacity="1"><g transform="translate(470.777564, 168.940802)"><g><path d="M 24.90625 -8.625 C 24.90625 -6.363281 24.53125 -4.664062 23.78125 -3.53125 C 23.039062 -2.40625 21.445312 -1.84375 19 -1.84375 C 17.894531 -1.84375 16.789062 -1.875 15.6875 -1.9375 C 14.59375 -2 13.53125 -2.320312 12.5 -2.90625 C 11.269531 -3.613281 10.265625 -5 9.484375 -7.0625 C 8.710938 -9.132812 8.101562 -11.539062 7.65625 -14.28125 C 7.207031 -17.03125 6.882812 -19.828125 6.6875 -22.671875 C 6.488281 -25.515625 6.375 -28.144531 6.34375 -30.5625 C 6.3125 -32.988281 6.296875 -34.882812 6.296875 -36.25 C 6.296875 -37.925781 6.34375 -39.988281 6.4375 -42.4375 C 6.539062 -44.894531 6.6875 -47.476562 6.875 -50.1875 C 7.070312 -52.90625 7.394531 -55.457031 7.84375 -57.84375 C 8.300781 -60.238281 8.851562 -62.148438 9.5 -63.578125 C 10.007812 -64.609375 10.632812 -65.523438 11.375 -66.328125 C 12.125 -67.140625 13.046875 -67.707031 14.140625 -68.03125 C 15.179688 -68.351562 16.25 -68.578125 17.34375 -68.703125 C 18.445312 -68.835938 19.515625 -68.90625 20.546875 -68.90625 C 21.316406 -68.90625 22.070312 -68.835938 22.8125 -68.703125 C 23.5625 -68.578125 24.289062 -68.351562 25 -68.03125 C 26.03125 -67.570312 27.03125 -66.488281 28 -64.78125 C 28.96875 -63.070312 29.90625 -61.003906 30.8125 -58.578125 C 31.71875 -56.160156 32.609375 -53.675781 33.484375 -51.125 C 34.359375 -48.570312 35.210938 -46.160156 36.046875 -43.890625 C 36.890625 -41.628906 37.742188 -39.804688 38.609375 -38.421875 C 39.484375 -37.035156 40.34375 -36.34375 41.1875 -36.34375 C 42.476562 -36.34375 43.703125 -37.210938 44.859375 -38.953125 C 46.023438 -40.703125 47.125 -42.898438 48.15625 -45.546875 C 49.195312 -48.191406 50.203125 -50.9375 51.171875 -53.78125 C 52.140625 -56.625 53.070312 -59.207031 53.96875 -61.53125 C 54.875 -63.863281 55.75 -65.515625 56.59375 -66.484375 C 57.820312 -67.835938 59.335938 -68.578125 61.140625 -68.703125 C 62.953125 -68.835938 64.664062 -68.90625 66.28125 -68.90625 C 67.957031 -68.90625 69.441406 -68.582031 70.734375 -67.9375 C 72.023438 -67.289062 73.0625 -66.191406 73.84375 -64.640625 C 75.132812 -62.179688 76.050781 -59.367188 76.59375 -56.203125 C 77.144531 -53.035156 77.484375 -49.835938 77.609375 -46.609375 C 77.742188 -43.378906 77.8125 -40.375 77.8125 -37.59375 C 77.8125 -36.5625 77.828125 -35.53125 77.859375 -34.5 C 77.890625 -33.46875 77.90625 -32.398438 77.90625 -31.296875 C 77.90625 -29.421875 77.859375 -27.222656 77.765625 -24.703125 C 77.671875 -22.191406 77.445312 -19.625 77.09375 -17 C 76.738281 -14.382812 76.1875 -11.945312 75.4375 -9.6875 C 74.695312 -7.425781 73.679688 -5.550781 72.390625 -4.0625 C 71.285156 -2.84375 70.085938 -2.179688 68.796875 -2.078125 C 67.503906 -1.984375 66.050781 -1.9375 64.4375 -1.9375 C 62.113281 -1.9375 60.578125 -2.46875 59.828125 -3.53125 C 59.085938 -4.601562 58.71875 -6.238281 58.71875 -8.4375 C 58.71875 -12.050781 58.78125 -15.648438 58.90625 -19.234375 C 59.039062 -22.816406 59.109375 -26.382812 59.109375 -29.9375 C 59.109375 -30.65625 59.023438 -31.335938 58.859375 -31.984375 C 58.703125 -32.628906 58.5625 -33.273438 58.4375 -33.921875 C 57.46875 -33.921875 56.722656 -33.289062 56.203125 -32.03125 C 55.691406 -30.769531 55.175781 -29.203125 54.65625 -27.328125 C 54.132812 -25.453125 53.421875 -23.578125 52.515625 -21.703125 C 51.617188 -19.828125 50.3125 -18.257812 48.59375 -17 C 46.882812 -15.75 44.546875 -15.125 41.578125 -15.125 C 38.992188 -15.125 36.875 -15.75 35.21875 -17 C 33.570312 -18.257812 32.265625 -19.8125 31.296875 -21.65625 C 30.328125 -23.5 29.550781 -25.359375 28.96875 -27.234375 C 28.394531 -29.109375 27.863281 -30.671875 27.375 -31.921875 C 26.894531 -33.179688 26.296875 -33.8125 25.578125 -33.8125 C 25.253906 -33.625 25.007812 -32.847656 24.84375 -31.484375 C 24.6875 -30.128906 24.609375 -28.757812 24.609375 -27.375 C 24.609375 -25.988281 24.609375 -25.035156 24.609375 -24.515625 C 24.609375 -21.929688 24.65625 -19.296875 24.75 -16.609375 C 24.851562 -13.929688 24.90625 -11.269531 24.90625 -8.625 Z M 24.90625 -8.625 "/></g></g></g><g fill="#ec9006" fill-opacity="1"><g transform="translate(548.884434, 168.940802)"><g><path d="M 26.359375 -21.421875 C 26.359375 -17.992188 28.132812 -16.28125 31.6875 -16.28125 C 34.332031 -16.28125 37.007812 -16.328125 39.71875 -16.421875 C 42.4375 -16.523438 45.125 -16.578125 47.78125 -16.578125 C 50.164062 -16.578125 51.679688 -16.15625 52.328125 -15.3125 C 52.972656 -14.46875 53.296875 -12.914062 53.296875 -10.65625 C 53.296875 -8.65625 52.796875 -7.023438 51.796875 -5.765625 C 50.796875 -4.503906 49.519531 -3.550781 47.96875 -2.90625 C 46.414062 -2.257812 44.734375 -1.804688 42.921875 -1.546875 C 41.117188 -1.285156 39.441406 -1.15625 37.890625 -1.15625 C 34.460938 -1.15625 30.859375 -1.171875 27.078125 -1.203125 C 23.304688 -1.242188 19.804688 -1.910156 16.578125 -3.203125 C 13.015625 -4.679688 10.585938 -6.8125 9.296875 -9.59375 C 8.003906 -12.375 7.234375 -15.570312 6.984375 -19.1875 C 6.847656 -21.570312 6.75 -23.941406 6.6875 -26.296875 C 6.625 -28.660156 6.59375 -31.039062 6.59375 -33.4375 C 6.59375 -35.375 6.578125 -37.296875 6.546875 -39.203125 C 6.515625 -41.109375 6.5 -43.03125 6.5 -44.96875 C 6.5 -51.101562 7.175781 -55.847656 8.53125 -59.203125 C 9.882812 -62.566406 11.898438 -64.972656 14.578125 -66.421875 C 17.265625 -67.878906 20.59375 -68.769531 24.5625 -69.09375 C 28.539062 -69.414062 33.144531 -69.578125 38.375 -69.578125 C 40.570312 -69.578125 42.863281 -69.285156 45.25 -68.703125 C 47.644531 -68.117188 49.617188 -66.988281 51.171875 -65.3125 C 52.066406 -64.34375 52.660156 -63.195312 52.953125 -61.875 C 53.242188 -60.550781 53.390625 -59.242188 53.390625 -57.953125 C 53.390625 -56.597656 52.820312 -55.628906 51.6875 -55.046875 C 50.5625 -54.460938 49.269531 -54.117188 47.8125 -54.015625 C 46.363281 -53.921875 45.15625 -53.875 44.1875 -53.875 C 42.570312 -53.875 40.972656 -53.953125 39.390625 -54.109375 C 37.804688 -54.273438 36.207031 -54.359375 34.59375 -54.359375 C 32.78125 -54.359375 31.257812 -54.273438 30.03125 -54.109375 C 28.8125 -53.953125 27.910156 -53.4375 27.328125 -52.5625 C 26.742188 -51.695312 26.453125 -50.164062 26.453125 -47.96875 C 26.453125 -46.414062 26.984375 -45.285156 28.046875 -44.578125 C 29.117188 -43.867188 30.378906 -43.414062 31.828125 -43.21875 C 33.285156 -43.019531 34.597656 -42.921875 35.765625 -42.921875 C 37.242188 -42.921875 38.707031 -42.96875 40.15625 -43.0625 C 41.613281 -43.164062 43.054688 -43.21875 44.484375 -43.21875 C 45.710938 -43.21875 46.972656 -43.070312 48.265625 -42.78125 C 49.554688 -42.488281 50.585938 -41.828125 51.359375 -40.796875 C 51.878906 -40.148438 52.171875 -39.242188 52.234375 -38.078125 C 52.296875 -36.921875 52.328125 -35.953125 52.328125 -35.171875 C 52.328125 -34.523438 52.257812 -33.847656 52.125 -33.140625 C 52 -32.429688 51.773438 -31.816406 51.453125 -31.296875 C 51.003906 -30.648438 50.148438 -30.164062 48.890625 -29.84375 C 47.628906 -29.519531 46.207031 -29.3125 44.625 -29.21875 C 43.039062 -29.125 41.535156 -29.09375 40.109375 -29.125 C 38.691406 -29.15625 37.597656 -29.171875 36.828125 -29.171875 C 36.046875 -29.171875 35.054688 -29.171875 33.859375 -29.171875 C 32.671875 -29.171875 31.523438 -29.085938 30.421875 -28.921875 C 29.328125 -28.765625 28.457031 -28.425781 27.8125 -27.90625 C 27.488281 -27.644531 27.242188 -27.304688 27.078125 -26.890625 C 26.921875 -26.472656 26.78125 -26.035156 26.65625 -25.578125 C 26.519531 -24.929688 26.4375 -24.253906 26.40625 -23.546875 C 26.375 -22.835938 26.359375 -22.128906 26.359375 -21.421875 Z M 26.359375 -21.421875 "/></g></g></g><g fill="#ec9006" fill-opacity="1"><g transform="translate(602.764548, 168.940802)"><g><path d="M 31.390625 -55.921875 C 29.648438 -55.921875 28.035156 -55.546875 26.546875 -54.796875 C 25.066406 -54.054688 24.328125 -52.648438 24.328125 -50.578125 C 24.328125 -48.960938 25.066406 -47.625 26.546875 -46.5625 C 28.035156 -45.5 29.957031 -44.546875 32.3125 -43.703125 C 34.675781 -42.859375 37.195312 -41.953125 39.875 -40.984375 C 42.5625 -40.015625 45.082031 -38.785156 47.4375 -37.296875 C 49.789062 -35.816406 51.710938 -33.914062 53.203125 -31.59375 C 54.691406 -29.269531 55.4375 -26.328125 55.4375 -22.765625 C 55.4375 -18.179688 54.222656 -14.175781 51.796875 -10.75 C 49.367188 -7.332031 46.234375 -4.703125 42.390625 -2.859375 C 38.546875 -1.015625 34.429688 -0.09375 30.046875 -0.09375 C 26.816406 -0.09375 23.78125 -0.269531 20.9375 -0.625 C 18.09375 -0.976562 15.585938 -1.738281 13.421875 -2.90625 C 11.253906 -4.070312 9.554688 -5.800781 8.328125 -8.09375 C 7.109375 -10.382812 6.5 -13.46875 6.5 -17.34375 C 6.5 -17.800781 6.5625 -18.207031 6.6875 -18.5625 C 6.8125 -18.914062 7.132812 -19.09375 7.65625 -19.09375 C 9.144531 -19.09375 10.628906 -18.847656 12.109375 -18.359375 C 13.597656 -17.878906 15.050781 -17.410156 16.46875 -16.953125 C 18.21875 -16.441406 19.992188 -15.957031 21.796875 -15.5 C 23.609375 -15.050781 25.421875 -14.828125 27.234375 -14.828125 C 28.460938 -14.828125 29.6875 -14.988281 30.90625 -15.3125 C 32.132812 -15.632812 33.171875 -16.210938 34.015625 -17.046875 C 34.859375 -17.890625 35.28125 -19.023438 35.28125 -20.453125 C 35.28125 -22.515625 34.535156 -24.0625 33.046875 -25.09375 C 31.816406 -26 30.488281 -26.628906 29.0625 -26.984375 C 27.644531 -27.335938 26.226562 -27.710938 24.8125 -28.109375 C 22.414062 -28.816406 20.019531 -29.800781 17.625 -31.0625 C 15.238281 -32.320312 13.046875 -33.835938 11.046875 -35.609375 C 9.046875 -37.390625 7.429688 -39.425781 6.203125 -41.71875 C 4.972656 -44.007812 4.359375 -46.515625 4.359375 -49.234375 C 4.359375 -52.785156 5.117188 -55.882812 6.640625 -58.53125 C 8.160156 -61.175781 10.195312 -63.382812 12.75 -65.15625 C 15.300781 -66.9375 18.125 -68.265625 21.21875 -69.140625 C 24.320312 -70.015625 27.457031 -70.453125 30.625 -70.453125 C 33.59375 -70.453125 36.414062 -70.351562 39.09375 -70.15625 C 41.78125 -69.96875 44.171875 -69.421875 46.265625 -68.515625 C 48.367188 -67.609375 50.035156 -66.101562 51.265625 -64 C 52.492188 -61.90625 53.109375 -58.984375 53.109375 -55.234375 C 53.109375 -53.617188 52.265625 -52.8125 50.578125 -52.8125 C 49.160156 -52.8125 47.722656 -52.988281 46.265625 -53.34375 C 44.816406 -53.695312 43.414062 -54.035156 42.0625 -54.359375 C 40.3125 -54.753906 38.546875 -55.113281 36.765625 -55.4375 C 34.992188 -55.757812 33.203125 -55.921875 31.390625 -55.921875 Z M 31.390625 -55.921875 "/></g></g></g></svg>